<svg version="1.1" id="Layer_0_xA0_Image_1_" xmlns="http://www.w3.org/2000/svg"
     x="0px" y="0px" viewBox="0 0 191.84 170.3" style="enable-background:new 0 0 191.84 170.3;" xml:space="preserve">
<style type="text/css">
	.st0{fill:#130F0C;}
	.st1{fill:#848683;}
	.st2{fill:#FECD66;}
</style>
<g>
	<path class="st0" d="M79.4,165.34c-2.2-0.78-3.08-3.8-3.38-5.87c-0.05-0.33-0.14-0.65-0.18-0.97c-0.03-0.3,0.09-0.73-0.27-0.8
		c-0.33-0.06-0.61,0.25-0.86,0.54c-0.68,0.77-1.44,1.49-2.34,1.98c-1.44,0.8-2.97,0.35-4.14-0.77c-0.98-0.94-1.82-1.9-2.43-3.12
		c-0.22-0.44-0.65-0.17-0.97,0.08c-1,0.79-1.36,1.94-1.81,3.05c-0.44,1.08-0.85,2.18-1.4,3.2c-0.63,1.16-1.71,1.73-3.02,1.86
		c-4.5,0.44-9.38-4.39-10.06-8.67c-0.31-1.92,0.23-3.86,0.79-5.72c2.28-7.58,4.67-15.78,8.8-22.55c0.84-1.38,1.71-2.66,3.12-3.49
		c4.2-2.47,4.66,3.21,6.18,5.77c0.39,0.66,0.86,1.33,1.55,1.65c0.56,0.26,1.2,0.27,1.82,0.27c1.4,0.01,2.98-0.06,3.93-1.09
		c0.55-0.61,0.78-1.45,1.21-2.15c0.95-1.53,2.77-2.24,4.48-2.79c1.26-0.4,2.56-0.78,3.87-0.64c4.81,0.5,5,7.44,5.07,10.93
		c0.11,6-0.28,12-1.19,17.93c-0.26,1.73-0.57,3.46-1.2,5.09c-0.62,1.61-1.54,3.11-2.71,4.38c-1.16,1.27-2.82,2.37-4.49,1.99
		C79.63,165.41,79.51,165.38,79.4,165.34z"/>
	<path class="st1" d="M24.25,21.4c-0.55,0.09-2.56-6.19-2.77-6.86c-0.72-2.31-1.61-4.94-1.49-7.38c0.02-0.46,0.09-0.94,0.33-1.33
		c0.36-0.61,1.1-0.96,1.8-0.85c2.31,0.36,3.92,4.66,4.81,6.45c1.29,2.6,2.36,5.29,3.3,8.04c0.07,0.21,0.12,0.41,0.12,0.62
		c-0.15,0.19-0.37,0.2-0.58,0.24c-0.89,0.15-1.37,0.72-1.64,1.55c-0.12,0.36-0.32,0.97-0.77,0.54
		C26.46,21.51,25.46,21.19,24.25,21.4z"/>
	<path class="st1" d="M75.14,20.39c5.99-0.08,12.07,0.92,17.67,3.07c5.28,2.03,11.59,5.66,14.26,10.92c0.55,1.08,0.79,2.37,0.4,3.52
		c-0.7,2.04-3.06,2.92-5.13,3.54c-7.69,2.29-15.03,4.54-22.06,8.52c-1.99,1.13-4.24,2.05-6.51,1.77c-2.87-0.36-5.49-2.99-7.83-4.54
		c-2.67-1.77-5.48-3.47-8.62-4.25c-5.44-1.34-13.95,0.47-16.3-6.26c-0.41-1.18-0.17-1.7,0.52-2.5c7.79-9.04,21.44-13.51,33.11-13.78
		C74.81,20.39,74.98,20.39,75.14,20.39z"/>
	<path class="st0" d="M80.12,78.38c-0.04,2.01,0.03,3.6,0.35,5.16c0.4,1.96,1.54,3.22,3.44,3.96c2.56,1,4.99,2.27,6.85,4.4
		c1.84,2.11,3.19,4.44,3.08,7.35c-0.17,4.12-1.47,7.8-4.23,10.97c-2.58,2.96-5.49,5.25-9.45,6.06c-4.01,0.82-7.76,0.22-11.2-1.92
		c-2.7-1.67-5.6-2.98-8.23-4.76c-3.02-2.05-5.16-4.75-6.31-8.21c-0.69-2.06,0-3.84,1.23-5.51c1.21-1.65,2.85-2.71,4.64-3.58
		c2.55-1.25,4.93-2.72,6.92-4.79c1.06-1.1,1.53-2.35,1.6-3.84c0.16-3.22,0.31-6.44,0.57-9.64c0.13-1.56,0.31-3.15,1.47-4.4
		c1.01-1.08,2.11-1.96,3.71-1.83c1.73,0.14,3.02,0.88,3.73,2.57C79.4,73.07,80.3,75.81,80.12,78.38z"/>
	<path class="st0" d="M33.6,158.95c-4.1,0.28-7.28-2.45-9.75-5.4c-1.65-1.98-3.19-4.11-4.05-6.54c-0.86-2.43-0.99-5.21,0.13-7.53
		c0.99-2.05,2.79-3.48,4.46-4.95c1.85-1.63,3.32-3.41,4.74-5.42c3.27-4.61,5.63-9.82,7.83-15c0.69-1.63,1.34-3.28,2.23-4.8
		c0.48-0.81,1.04-1.59,1.84-2.08s1.87-0.62,2.66-0.11c0.43,0.28,0.72,0.7,1.03,1.11c1.6,2.13,3.66,3.9,6,5.18
		c1.78,0.97,5.95,1.5,5.99,4.16c0.04,3.17-0.26,7.3-1.72,10.17c-0.71,1.39-2.04,2.57-3.6,2.65c-3.09,0.16-4.86-3.66-7.78-4.69
		c-0.29-0.1-0.6-0.18-0.9-0.1c-0.5,0.12-0.82,0.63-0.94,1.14c-0.28,1.28,0.46,2.57,1.38,3.5c0.92,0.93,2.04,1.66,2.85,2.69
		c1.2,1.53,1.58,3.57,1.59,5.52c0.01,2.01-0.36,4.09-1.55,5.71c-1.18,1.62-3.32,2.65-5.25,2.1c-2.23-0.64-3.43-2.99-4.35-5.12
		c-0.4-0.92-1.3-2.03-2.15-1.51c-0.4,0.24-0.54,0.76-0.56,1.24c-0.11,3.61,3.89,4.97,6.01,7.1c1.93,1.95,2.41,5.14,1.34,7.63
		c-0.95,2.21-2.78,2.75-4.82,3.17C35.4,158.95,34.55,158.93,33.6,158.95z"/>
	<path class="st0" d="M5.61,119.66c0.02-1.17,0.12-2.34,0.31-3.48c0.81-5,3.08-9.68,6.16-13.67c3.03-3.93,5.9-7.75,8.79-11.83
		c1.25-1.77,2.66-3.37,4.48-4.52c0.95-0.6,2.04-0.91,3.27-0.58c1.39,0.37,1.92,1.41,2.07,2.56c0.25,2.02,0.74,3.93,1.51,5.81
		c0.57,1.41,0.87,2.88,0.18,4.35c-0.22,0.46-0.52,0.91-0.87,1.28c-2.47,2.63-5.98,4.32-8.76,6.64c-0.43,0.36-0.87,0.74-1.19,1.2
		c-0.41,0.6-0.61,1.32-0.73,2.03c-0.46,2.89,0.65,4.89,2.54,6.94c1.62,1.75,4.97,3.98,5.01,6.5c0.02,1.33-0.53,2.59-1.15,3.76
		c-2.06,3.85-5.05,7.2-8.65,9.67c-0.56,0.38-1.14,0.75-1.8,0.93c-1.21,0.32-2.53-0.07-3.57-0.77
		C7.85,132.91,5.51,125.81,5.61,119.66z"/>
	<path class="st0" d="M118.75,140.4c0.03,2.23-0.22,4.43-0.97,6.52c-1.8,5.08-6.92,8.81-12.32,6.83c-4.37-1.6-7.6-6.74-9.82-10.58
		c-2.67-4.62-4.5-9.69-5.7-14.87c-0.34-1.48-0.6-3.16,0.25-4.42c1.13-1.67,3.74-1.66,5.42-0.55c1.68,1.11,2.67,2.97,3.64,4.74
		c0.51,0.93,4.67,9.22,5.98,4.52c0.52-1.89-0.51-4.34-0.98-6.15c-0.63-2.43-1.15-4.89-1.55-7.38c-0.1-0.59-0.18-1.23,0.08-1.77
		c0.23-0.48,0.69-0.81,1.17-1.04c2.05-0.99,4.59-0.54,6.49,0.71s3.24,3.2,4.26,5.24c1.85,3.72,2.76,7.84,3.41,11.94
		C118.46,136.2,118.73,138.31,118.75,140.4z"/>
	<path class="st0" d="M156.97,120.59c-0.09,2.92-0.72,5.83-2.34,8.23c-0.44,0.65-1.03,1.3-1.81,1.4c-0.99,0.12-1.84-0.69-2.4-1.51
		c-2.03-2.97-2.38-6.72-3.31-10.19c-1.13-4.18-3.17-8.06-4.72-12.11c-1.55-4.05-2.62-8.47-1.7-12.71c0.33-1.53,0.95-3.05,2.05-4.17
		c4.45-4.51,10.49,3.19,11.61,7.3c0.97,3.59,0.88,7.36,1.26,11.06c0.36,3.56,1.16,7.07,1.35,10.64
		C156.98,119.22,156.99,119.91,156.97,120.59z"/>
	<path class="st0" d="M52.58,83.42c-3.61-0.12-7.1-0.78-10.12-2.85c-2.43-1.67-4.15-4.04-5.58-6.59c-1.23-2.18-2.2-4.51-2.57-7
		c-0.29-1.91-0.22-3.83-0.13-5.78c0.11-2.34,1.37-3.94,2.69-5.61c0.93-1.17,2.2-1.52,3.55-1.53c3.32-0.01,6.61,0.33,9.75,1.46
		c1.66,0.6,3.41,0.61,5.12,0.71c2.3,0.13,3.94,1.13,5.35,2.94c2.67,3.41,3.74,7.5,5.16,11.45c0.46,1.27,1.08,2.48,1.37,3.8
		c0.34,1.53,0.09,2.94-0.72,4.28c-0.18,0.29-0.46,0.35-0.74,0.48c-2.42,1.14-5.05,1.67-7.5,2.72c-1.18,0.51-2.35,1.04-3.62,1.35
		C53.91,83.44,53.25,83.27,52.58,83.42z"/>
	<path class="st0" d="M114.28,60.88c-0.12,2.59-0.65,5.11-1.73,7.44c-1.18,2.54-2.2,5.2-4.37,7.16c-0.82,0.74-1.76,1.29-2.73,1.77
		c-2.16,1.05-4.27,2.31-6.68,2.68c-1.92,0.3-3.83,0.68-5.82,0.36c-1.24-0.2-2.53,0.01-3.8-0.06c-1.15-0.07-2.31-0.18-3.43-0.43
		c-2.36-0.52-3.3-3.08-3.58-4.87c-0.31-1.9,0-3.77,0.08-5.66c0.05-1.27,0.08-2.57,0.15-3.85c0.17-3.18,1.09-6.18,3.48-8.43
		c1.92-1.81,4.29-2.88,6.98-3.12c2.06-0.18,4.13-0.4,6.19-0.55c3.63-0.26,7.12,0.31,10.47,1.77c1.04,0.46,2.18,0.74,3.07,1.46
		C113.92,57.65,114.35,59.18,114.28,60.88z"/>
	<path class="st1" d="M115.16,25.24c0.63-1.77,1.63-3.37,2.5-5.02c2.75-5.19,6.3-11.41,11.73-14.18c1.2-0.61,2.83-0.97,3.76,0
		c0.76,0.79,0.64,2.05,0.39,3.11c-0.96,4.03-3.19,7.6-5.69,10.86c-2.57,3.36-5.29,6.66-8.26,9.67c-0.21,0.22-0.46,0.4-0.69,0.6
		c-0.32-0.36-0.07-0.77-0.08-1.15c-0.03-0.82-0.34-1.05-1.12-0.8c-1.51,0.48-1.51,0.48-1.47-1.12
		C116.26,26.34,115.94,25.67,115.16,25.24z"/>
	<path class="st0" d="M24.31,21.37c1.21-0.65,2.09-0.17,2.92,0.67c0.21,0.21,0.56,0.12,0.64-0.16c0.35-1.13,0.99-1.88,2.31-1.82
		c0.11,0.01,0.21,0.06,0.28,0.14c2.72,3.27,2.49,9.64,2.3,13.61c-0.02,0.35-0.17,0.81-0.51,0.76c-0.15-0.02-0.27-0.15-0.37-0.27
		c-1.35-1.63-2.46-3.39-3.65-5.14c-1.14-1.67-2.64-3.06-3.91-4.63c-1.12-1.38-1.1-2.14-0.12-3.1
		C24.23,21.42,24.27,21.39,24.31,21.37z"/>
	<path class="st0" d="M115.16,25.24c1.03,0.11,1.56,1.07,1.3,2.4c-0.06,0.3-0.32,0.65-0.08,0.86c0.26,0.23,0.52-0.18,0.8-0.24
		c0.51-0.12,1.01-0.68,1.53-0.22c0.53,0.48,0.48,1.14,0.22,1.78c-0.05,0.14-0.03,0.31-0.03,0.46c-0.06,0.97-1.93,2.45-2.59,3.09
		c-1.21,1.2-2.36,3.21-3.74,4.14c-0.3,0.21-0.75,0.25-1.02,0c-0.24-0.22-0.27-0.59-0.27-0.92c-0.01-2.09,0.3-4.19,0.94-6.18
		C112.72,28.83,113.52,26.01,115.16,25.24z"/>
	<path class="st0" d="M148.3,131.85c-0.14-3.57-1.54-7.41-2.53-10.28c-1.18-3.43-2.58-7.13-5.69-8.99c-1.35-0.8-2.91-1.18-4.27-1.96
		c-1.37-0.77-2.59-2.15-2.45-3.71c0.07-0.76,0.45-1.46,0.73-2.17c2.56-6.54-3.76-13.3-10.11-9.11c-2.21,1.45-3.8,3.66-5.27,5.85
		c-1.25,1.86-2.47,3.77-3.2,5.89c-1.06,3.13-0.98,6.55-0.3,9.79c0.68,3.23,1.93,6.31,3.18,9.37c1.37,3.36,2.73,6.72,4.1,10.08
		c1.11,2.73,1.86,6.32,4.29,8.2c1.21,0.94,2.53,0.98,3.69,0.1c0.9-0.68,1.15-1.67,1.45-2.64c0.76-2.48,0.22-4.95-0.08-7.42
		c-0.33-2.7-0.74-5.4-0.26-8.12c0.14-0.76,0.57-1.59,1.42-1.74c0.75-0.14,1.15,0.56,1.48,1.16c0.45,0.8,0.7,1.71,1.31,2.43
		c0.72,0.86,0.96,1.97,1.56,2.92c0.81,1.3,1.66,2.6,2.3,3.98c0.62,1.33,1.44,2.45,2.55,3.33c1.08,0.86,2.73,0.95,3.64,0.25
		c0.59-0.45,0.94-1.16,1.32-1.8C148.08,135.66,148.37,133.79,148.3,131.85z M125.95,108.63c-0.81,1.3-1.86,2.48-2.74,3.25
		c-1.1-0.79-1.35-2.34-0.94-3.6c0.4-1.26,1.32-2.3,2.22-3.3c0.73-0.81,1.35-1.41,2.45-1.52C127.65,105,127.01,106.92,125.95,108.63z
		"/>
	<path class="st0" d="M183.65,90.7c-2.18-5-8.09-5.21-12.29-2.63c-2.71,1.66-4.73,4.26-6.37,6.98c-3.82,6.34-5.92,13.7-6.01,21.1
		c-0.02,1.75,0.09,3.58,1.04,5.06c1.04,1.62,3.06,2.55,4.96,2.28c3.15-0.44,5.02-3.56,7.68-5.02c0.47-0.26,1.22-0.45,1.42,0.08
		c0.32,0.83,0.34,1.78,0.42,2.68c0.12,1.45,0.24,2.87,0.97,4.2c0.65,1.19,1.2,1.44,2.56,1.05c1.13-0.33,1.57-1.34,2.03-2.17
		c1.1-2.01,1.74-4.2,2.11-6.5c0.66-4.16,2.15-8.12,2.71-12.29C185.5,100.72,185.6,95.17,183.65,90.7z M172.69,103.62
		c-0.57,0.93-1.22,1.78-1.74,2.43c-0.12,0.15-0.25,0.3-0.44,0.34c-0.25,0.05-0.5-0.15-0.59-0.39c-0.09-0.24-0.06-0.51-0.01-0.76
		c0.32-1.93,1.12-3.78,2.31-5.33c0.41-0.53,0.84-0.99,1.51-1.02C174.31,100.33,173.62,102.08,172.69,103.62z"/>
	<path class="st2" d="M39.27,65.07c-0.12-1.3,0.24-2.54,0.72-3.77c0.25-0.65,0.69-1.09,1.33-1.29c1.71-0.52,3.4-0.84,5.26-0.63
		c3.01,0.33,5.83,1.13,8.49,2.5c2.24,1.16,4.24,2.66,5.44,4.98c1.08,2.09,0.87,4.13-0.42,6.03c-1.24,1.83-2.62,3.52-4.97,4.05
		c-0.69,0.16-1.34,0.13-2.01,0.12c-4.06-0.05-7.72-1.34-10.86-3.87c-1.43-1.16-2.11-2.95-2.6-4.72
		C39.35,67.39,39.19,66.26,39.27,65.07z"/>
	<path class="st2" d="M94.28,75.98c-1.79-0.06-3.48-0.25-5.15-0.86c-2.73-1-3.76-3.35-3.43-5.93c0.34-2.64,1.33-4.98,2.95-7.14
		c1.6-2.12,3.75-3.2,6.2-3.47c2.03-0.22,4.07-0.65,6.13-0.44c1.92,0.2,3.66,0.75,4.55,2.68c0.62,1.36,0.5,2.85,0.33,4.25
		c-0.24,2.03-0.9,3.97-1.76,5.86c-0.88,1.91-2.36,3.03-4.19,3.69c-1.21,0.43-2.42,0.91-3.69,1.21
		C95.54,75.99,94.88,75.83,94.28,75.98z"/>
	<path class="st0" d="M52.63,68.3c0,1.95-0.64,2.86-2.24,3.36c-0.64,0.2-2.13-0.53-2.66-1.31c-1.28-1.86-1.3-3.12-0.09-5.05
		c0.59-0.94,2.24-1.06,3.32-0.18C51.99,65.97,52.89,66.94,52.63,68.3z"/>
	<path class="st0" d="M96.63,67.28c0.11,1.07-0.34,2.03-0.98,2.89c-0.61,0.82-1.47,0.84-2.18,0.13c-1.23-1.23-1.43-2.95-0.52-4.41
		c0.42-0.68,1.71-1.12,2.54-0.87C96.38,65.29,96.63,65.76,96.63,67.28z"/>
</g>
</svg>
